HIERARCHY
ROOT LINK_BASE
{
	OFFSET 0.000000 0.000000 0.000000
	CHANNELS 6 Xposition Yposition Zposition Zrotation Yrotation Xrotation
	JOINT LINK_HIP_PITCH_L
	{
		OFFSET -0.000000 7.917800 0.000003
		CHANNELS 3 Zrotation Yrotation Xrotation
		JOINT LINK_HIP_ROLL_L
		{
			OFFSET 0.466199 4.032201 -10.752001
			CHANNELS 3 Zrotation Yrotation Xrotation
			JOINT LINK_HIP_YAW_L
			{
				OFFSET 0.946159 -0.000001 -8.051204
				CHANNELS 3 Zrotation Yrotation Xrotation
				JOINT LINK_KNEE_PITCH_L
				{
					OFFSET -3.770699 0.000001 -28.791999
					CHANNELS 3 Zrotation Yrotation Xrotation
					JOINT LINK_ANKLE_PITCH_L
					{
						OFFSET -0.271681 0.000001 -43.866997
						CHANNELS 3 Zrotation Yrotation Xrotation
						JOINT LINK_ANKLE_ROLL_L
						{
							OFFSET 0.110731 0.000000 -3.792800
							CHANNELS 3 Zrotation Yrotation Xrotation
							JOINT LINK_ANKLE_ROLL_L_TOE
							{
								OFFSET 0.000000 0.000000 0.000000
								CHANNELS 3 Zrotation Yrotation Xrotation
								End Site
								{
									OFFSET 0.000000 0.000000 2.000000
								}
							}
							JOINT LINK_ANKLE_ROLL_L_HEEL
							{
								OFFSET 0.000000 0.000000 0.000000
								CHANNELS 3 Zrotation Yrotation Xrotation
								End Site
								{
									OFFSET 0.000000 0.000000 2.000000
								}
							}
						}
					}
				}
			}
		}
	}
	JOINT LINK_HIP_PITCH_R
	{
		OFFSET 0.000000 -7.917800 -0.000003
		CHANNELS 3 Zrotation Yrotation Xrotation
		JOINT LINK_HIP_ROLL_R
		{
			OFFSET 0.466201 -4.032200 -10.751998
			CHANNELS 3 Zrotation Yrotation Xrotation
			JOINT LINK_HIP_YAW_R
			{
				OFFSET 0.946162 -0.000001 -8.051197
				CHANNELS 3 Zrotation Yrotation Xrotation
				JOINT LINK_KNEE_PITCH_R
				{
					OFFSET -3.770701 0.000001 -28.792000
					CHANNELS 3 Zrotation Yrotation Xrotation
					JOINT LINK_ANKLE_PITCH_R
					{
						OFFSET -0.271679 -0.000001 -43.867000
						CHANNELS 3 Zrotation Yrotation Xrotation
						JOINT LINK_ANKLE_ROLL_R
						{
							OFFSET 0.110730 -0.000000 -3.792800
							CHANNELS 3 Zrotation Yrotation Xrotation
							JOINT LINK_ANKLE_ROLL_R_TOE
							{
								OFFSET 0.000000 0.000000 0.000000
								CHANNELS 3 Zrotation Yrotation Xrotation
								End Site
								{
									OFFSET 0.000000 0.000000 2.000000
								}
							}
							JOINT LINK_ANKLE_ROLL_R_HEEL
							{
								OFFSET 0.000000 0.000000 0.000000
								CHANNELS 3 Zrotation Yrotation Xrotation
								End Site
								{
									OFFSET 0.000000 0.000000 2.000000
								}
							}
						}
					}
				}
			}
		}
	}
	JOINT LINK_TORSO_YAW
	{
		OFFSET -0.000001 -0.000000 10.384004
		CHANNELS 3 Zrotation Yrotation Xrotation
		JOINT LINK_SHOULDER_PITCH_L
		{
			OFFSET -1.099999 16.303001 27.888999
			CHANNELS 3 Zrotation Yrotation Xrotation
			JOINT LINK_SHOULDER_ROLL_L
			{
				OFFSET -0.000002 6.253300 -1.545506
				CHANNELS 3 Zrotation Yrotation Xrotation
				JOINT LINK_SHOULDER_YAW_L
				{
					OFFSET 0.003461 0.852461 -8.271198
					CHANNELS 3 Zrotation Yrotation Xrotation
					JOINT LINK_ELBOW_PITCH_L
					{
						OFFSET 0.192520 1.359702 -15.074998
						CHANNELS 3 Zrotation Yrotation Xrotation
						JOINT LINK_ELBOW_YAW_L
						{
							OFFSET -0.220908 0.943622 -13.182004
							CHANNELS 3 Zrotation Yrotation Xrotation
							JOINT LINK_WRIST_PITCH_L
							{
								OFFSET 0.000000 0.000000 0.000000
								CHANNELS 3 Zrotation Yrotation Xrotation
								JOINT LINK_WRIST_ROLL_L
								{
									OFFSET 0.000000 0.000000 0.000000
									CHANNELS 3 Zrotation Yrotation Xrotation
									End Site
									{
										OFFSET 0.000000 0.000000 2.000000
									}
								}
							}
						}
					}
				}
			}
		}
		JOINT LINK_SHOULDER_PITCH_R
		{
			OFFSET -1.099998 -16.303000 27.888992
			CHANNELS 3 Zrotation Yrotation Xrotation
			JOINT LINK_SHOULDER_ROLL_R
			{
				OFFSET -0.000001 -6.253300 -1.545501
				CHANNELS 3 Zrotation Yrotation Xrotation
				JOINT LINK_SHOULDER_YAW_R
				{
					OFFSET 0.003462 -0.852461 -8.271199
					CHANNELS 3 Zrotation Yrotation Xrotation
					JOINT LINK_ELBOW_PITCH_R
					{
						OFFSET 0.192520 -1.359701 -15.075000
						CHANNELS 3 Zrotation Yrotation Xrotation
						JOINT LINK_ELBOW_YAW_R
						{
							OFFSET -0.220904 -0.943622 -13.182004
							CHANNELS 3 Zrotation Yrotation Xrotation
							JOINT LINK_WRIST_PITCH_R
							{
								OFFSET 0.000000 0.000000 0.000000
								CHANNELS 3 Zrotation Yrotation Xrotation
								JOINT LINK_WRIST_ROLL_R
								{
									OFFSET 0.000000 0.000000 0.000000
									CHANNELS 3 Zrotation Yrotation Xrotation
									End Site
									{
										OFFSET 0.000000 0.000000 2.000000
									}
								}
							}
						}
					}
				}
			}
		}
		JOINT LINK_HEAD_PITCH
		{
			OFFSET -1.130000 0.000000 38.604001
			CHANNELS 3 Zrotation Yrotation Xrotation
			JOINT LINK_HEAD_YAW
			{
				OFFSET 0.000001 -0.000000 4.019898
				CHANNELS 3 Zrotation Yrotation Xrotation
				End Site
				{
					OFFSET 0.000000 0.000000 2.000000
				}
			}
		}
	}
}
MOTION
Frames: 4
Frame Time: 0.02000000
52.75854468 -38.86509836 99.49964881 -315.60042911 -16.74493728 -49.94216170 5.02268503 -18.09438272 -0.80025273 0.00000022 0.00000079 49.26222710 21.41125119 -0.00000067 -0.00000145 0.00000388 37.94607791 0.00000158 -0.00000322 -16.02088242 0.00000000 0.00000288 -0.00000010 9.99811426 0.00000000 0.00000000 0.00000000 0.00000000 0.00000000 0.00000000 -2.31583358 -8.57584215 0.17366269 -0.00000096 -0.00000014 -52.02845153 -8.96339885 0.00000101 0.00000190 -0.00000081 68.17028005 -0.00000215 -0.00000215 39.00009145 -0.00000105 0.00000261 0.00000058 -4.89435753 0.00000000 0.00000000 0.00000000 0.00000000 0.00000000 0.00000000 16.47573953 0.00000102 0.00000077 -35.34203924 -82.08146871 31.00146176 -0.00000022 0.00000309 114.59156235 -127.75569930 3.24363612 -6.60903856 1.09839357 14.97217452 0.14433948 3.15494913 -0.20665256 -0.70680601 0.00000000 0.00000000 0.00000000 0.00000000 0.00000000 0.00000000 -1.15924968 14.11452327 -0.14351933 -0.00000041 -0.00000130 -62.42789506 -50.89138409 -3.18355203 1.51506736 138.13283369 -83.86984130 -133.86950567 2.16088742 0.16396652 -0.47739871 0.00000000 0.00000000 0.00000000 0.00000000 0.00000000 0.00000000 0.00000102 29.96569125 0.00000383 -11.47186886 0.00000062 -0.00000001
52.21851468 -40.42296708 97.91885018 -322.48336617 -18.12892501 -50.50398686 6.55531176 -23.07691144 -1.33967549 -0.00000060 0.00000281 55.38133740 24.64128616 -0.00000021 -0.00000039 -0.00000729 42.78730656 -0.00000259 0.00000117 -19.64199245 0.00000074 0.00000415 -0.00000101 9.99811321 0.00000000 0.00000000 0.00000000 0.00000000 0.00000000 0.00000000 -1.19462938 -4.44912984 0.04640956 -0.00000038 -0.00000125 -45.96756195 -16.32568414 0.00000279 0.00000165 0.00000328 74.22045731 0.00000773 0.00000207 39.00009179 0.00000041 -0.00000273 -0.00000161 -8.40266608 0.00000000 0.00000000 0.00000000 0.00000000 0.00000000 0.00000000 20.72233100 0.00000085 0.00000195 -110.01088077 -85.10583610 105.34368169 -0.00000334 0.00000344 114.59155927 -139.48590763 2.66611743 -7.21584810 0.93652057 12.84499783 0.10542279 3.44966301 -0.22395356 -0.77336137 0.00000000 0.00000000 0.00000000 0.00000000 0.00000000 0.00000000 -1.33626248 16.16377107 -0.18975461 0.00000102 0.00000098 -60.77770374 -58.58398522 -3.50057057 1.96419598 152.03361653 -81.30949088 -147.65871715 2.08274111 0.15772092 -0.46023862 0.00000000 0.00000000 0.00000000 0.00000000 0.00000000 0.00000000 0.00000011 29.96569195 0.00000096 -10.00145167 0.00000060 0.00000027
51.95609927 -41.81084931 96.88387513 -327.26856494 -19.96651129 -50.92391237 7.71906735 -26.62343681 -1.82898816 0.00000172 -0.00000169 60.08059169 24.30819087 0.00000006 0.00000089 -0.00000040 46.02771466 -0.00000103 -0.00000227 -20.50652366 0.00000043 0.00000284 -0.00000104 9.99811389 0.00000000 0.00000000 0.00000000 0.00000000 0.00000000 0.00000000 0.58372006 2.17738702 0.01109336 -0.00000130 -0.00000044 -36.94123241 -21.36637920 0.00000165 -0.00000085 0.00000899 76.88327701 0.00001172 -0.00000217 39.00009180 -0.00000019 -0.00000063 -0.00000102 -9.99469168 0.00000000 0.00000000 0.00000000 0.00000000 0.00000000 0.00000000 22.69056738 0.00000041 0.00000188 -110.01387830 -85.10574535 105.34667077 0.00000033 -0.00000179 114.59155932 -148.59965149 2.13880731 -7.59869201 -0.05033303 -0.70215066 0.00030851 10.78045219 -0.54285827 -2.45145939 0.00000000 0.00000000 0.00000000 0.00000000 0.00000000 0.00000000 -1.42112606 17.13165354 -0.21407216 0.00000130 0.00000105 -58.73786448 -59.98657638 -3.55171598 2.05047092 159.08030682 -78.64861142 -154.60003822 1.77969314 0.13372817 -0.39361858 0.00000000 0.00000000 0.00000000 0.00000000 0.00000000 0.00000000 0.00000203 29.96569193 -0.00000098 -7.76365194 0.00000080 0.00000238
51.15087032 -43.29872131 96.35446668 -332.97266300 -20.75424112 -51.15792226 9.17910020 -30.76708694 -2.53051318 0.00000086 0.00000255 63.81859659 23.85085334 -0.00000110 -0.00000060 0.00000516 46.33769199 0.00000220 0.00000237 -19.87348961 -0.00000033 -0.00000285 0.00000031 9.99811375 0.00000000 0.00000000 0.00000000 0.00000000 0.00000000 0.00000000 1.49100926 5.54650634 0.07222726 0.00000067 0.00000093 -25.20424788 -22.66347111 0.00000150 0.00000224 0.00000500 75.70070038 0.00000697 -0.00000225 39.00008953 -0.00000371 0.00000046 -0.00000218 -9.99811302 0.00000000 0.00000000 0.00000000 0.00000000 0.00000000 0.00000000 23.11165041 -0.00000096 0.00000077 -110.01386040 -85.10574527 105.34665173 0.00000158 -0.00000115 114.59155766 -150.06388575 2.04865559 -7.65218985 -1.81350596 -23.82106154 0.38254456 24.98640870 -0.54236239 -5.75256100 0.00000000 0.00000000 0.00000000 0.00000000 0.00000000 0.00000000 -1.42112805 17.13165409 -0.21406913 0.00000027 -0.00000027 -56.71915178 -60.01657690 -3.55278808 2.05232452 163.74620177 -75.63530248 -159.15063274 1.20649874 0.08931611 -0.26727441 0.00000000 0.00000000 0.00000000 0.00000000 0.00000000 0.00000000 -0.00000101 29.92153304 -0.00000091 -5.73465887 -0.00000005 0.00000071
